<svg width="21" height="16" viewBox="0 0 21 16" fill="none" xmlns="http://www.w3.org/2000/svg">
<path d="M8.12167 11.3769V4.62314L13.3479 8L8.12167 11.3769ZM19.7492 2.49823C19.5192 1.51455 18.8404 0.739532 17.9804 0.476934C16.4204 -4.23028e-08 10.1667 0 10.1667 0C10.1667 0 3.91292 -4.23028e-08 2.35292 0.476934C1.49292 0.739532 0.814172 1.51455 0.584172 2.49823C0.166672 4.28105 0.166672 8 0.166672 8C0.166672 8 0.166672 11.719 0.584172 13.5018C0.814172 14.4855 1.49292 15.2605 2.35292 15.5231C3.91292 16 10.1667 16 10.1667 16C10.1667 16 16.4204 16 17.9804 15.5231C18.8404 15.2605 19.5192 14.4855 19.7492 13.5018C20.1667 11.719 20.1667 8 20.1667 8C20.1667 8 20.1667 4.28105 19.7492 2.49823" fill="#FDFCFC"/>
</svg>
