<svg width="20" height="15" viewBox="0 0 20 15" fill="none" xmlns="http://www.w3.org/2000/svg">
<path d="M17.8021 10.5147C17.8021 10.5147 19.4191 12.6098 19.8191 13.5792C19.8269 13.5932 19.833 13.6087 19.8371 13.6252C20.0001 13.9833 20.0401 14.264 19.9601 14.4713C19.8251 14.8137 19.3681 14.9856 19.2131 15H16.3551C16.1561 15 15.7421 14.9318 15.2381 14.4753C14.8531 14.1224 14.4701 13.5412 14.0991 12.9732C13.5451 12.1296 13.0661 11.3976 12.5811 11.3976C12.5198 11.3974 12.459 11.4107 12.4011 11.4369C12.0341 11.5891 11.5681 12.2752 11.5681 14.1027C11.5681 14.6747 11.2241 15 10.9831 15H9.6741C9.2281 15 6.9061 14.7953 4.8471 11.9473C2.32409 8.46029 0.0580901 1.46537 0.0360901 1.40371C-0.10491 0.951111 0.19109 0.704478 0.511091 0.704478H3.39709C3.78409 0.704478 3.91009 1.01146 3.99809 1.28695C4.10009 1.60311 4.47809 2.86776 5.0981 4.28853C6.1021 6.60005 6.7191 7.54067 7.2121 7.54067C7.30472 7.54103 7.39578 7.50935 7.4761 7.44884C8.1201 6.98443 8.0001 3.96712 7.9701 3.34529C7.9701 3.22459 7.9691 1.99799 7.6391 1.40502C7.4031 0.979972 7.0011 0.814675 6.7581 0.754329C6.8231 0.631013 6.9611 0.442102 7.1381 0.330593C7.5791 0.0419799 8.3761 0 9.1671 0H9.6061C10.4641 0.0157425 10.6861 0.0878956 10.9981 0.191534C11.6261 0.388315 11.6381 0.92225 11.5831 2.74051C11.5671 3.26001 11.5501 3.84511 11.5501 4.53385C11.5501 4.68078 11.5451 4.84476 11.5451 5.01137C11.5261 5.94411 11.5011 6.99493 12.0031 7.42654C12.0682 7.47974 12.1434 7.50792 12.2201 7.50787C12.3941 7.50787 12.9151 7.50787 14.3281 4.32657C14.9481 2.92155 15.4281 1.26465 15.4611 1.14002C15.4891 1.07049 15.5731 0.875022 15.6751 0.796309C15.7477 0.745664 15.8289 0.720365 15.9111 0.722844H19.3061C19.6761 0.722844 19.9271 0.79631 19.9761 0.979972C20.0581 1.27777 19.9601 2.1869 18.4101 4.93659C18.1491 5.39444 17.9201 5.79063 17.7191 6.13696C16.3141 8.55606 16.3141 8.67807 17.8021 10.5147V10.5147Z" fill="#F9FAFC"/>
</svg>
